<?xml version="1.0" standalone="no"?>
<!DOCTYPE svg PUBLIC "-//W3C//DTD SVG 20010904//EN"
 "http://www.w3.org/TR/2001/REC-SVG-20010904/DTD/svg10.dtd">
<svg version="1.0" xmlns="http://www.w3.org/2000/svg"
 width="1312.000000pt" height="736.000000pt" viewBox="0 0 1312.000000 736.000000"
 preserveAspectRatio="xMidYMid meet">

<g transform="translate(0.000000,736.000000) scale(0.100000,-0.100000)"
fill="#000000" stroke="none">
<path d="M0 3680 l0 -3680 6560 0 6560 0 0 3680 0 3680 -6560 0 -6560 0 0
-3680z m6944 1335 c61 -61 148 -137 194 -170 l82 -59 0 -361 0 -362 -170 -81
-171 -81 -132 55 c-73 31 -137 62 -144 70 -10 13 -26 6 -113 -46 -108 -66
-126 -69 -168 -30 -57 54 -57 50 -62 381 -5 284 -6 309 -24 328 -25 28 -46 26
-89 -6 l-36 -28 -1 -277 0 -277 45 -65 45 -66 -206 0 -206 0 30 38 c63 79 62
76 62 379 0 311 1 307 -71 343 -21 11 -39 24 -39 29 0 12 55 55 147 116 57 38
78 46 98 41 33 -8 74 -51 81 -85 14 -68 11 -68 129 18 61 44 115 81 120 81 21
0 74 -40 101 -76 l29 -37 5 -322 c4 -285 7 -324 23 -348 21 -32 21 -32 64 -6
l34 21 -3 187 c-1 102 -1 259 0 349 l2 162 91 0 91 0 -118 123 c-66 68 -132
142 -148 165 l-28 41 33 28 c19 15 63 53 99 84 l65 55 74 -100 c41 -56 124
-151 185 -211z m-1929 160 c-8 -19 -22 -52 -31 -72 -9 -20 -22 -68 -30 -105
-13 -64 -13 -78 8 -201 33 -189 33 -465 1 -550 -29 -78 -98 -172 -178 -243
l-66 -59 113 3 c136 4 180 -4 363 -71 150 -55 201 -62 265 -34 19 8 70 31 113
51 42 19 77 32 77 28 0 -5 -17 -36 -37 -70 -50 -81 -178 -221 -219 -238 -41
-17 -109 -6 -248 43 -169 58 -227 72 -333 81 -134 12 -296 -2 -405 -33 -48
-14 -91 -25 -96 -25 -6 0 12 51 39 114 68 163 101 290 103 401 l1 90 -50 -2
c-32 -2 -71 -14 -109 -33 l-58 -30 7 38 c19 103 80 181 170 219 l43 18 4 145
c4 168 16 203 97 278 l46 42 -50 0 c-78 0 -183 -27 -261 -65 -40 -19 -74 -35
-76 -35 -7 0 9 96 23 137 16 49 64 100 123 131 50 26 54 26 266 27 200 1 221
3 300 27 47 14 88 26 93 27 4 0 0 -15 -8 -34z m2883 -374 l42 -21 0 -358 0
-359 -165 -78 -164 -78 -48 21 c-26 11 -92 42 -145 68 l-98 47 0 347 0 347
176 85 177 86 91 -43 c50 -23 110 -52 134 -64z m-2259 36 l124 -62 -2 -350
c-1 -192 -5 -353 -9 -357 -5 -5 -78 -43 -164 -86 l-155 -78 -144 66 -144 66 0
350 0 349 35 18 c119 60 307 147 320 146 8 0 71 -28 139 -62z m2971 6 c17 -19
36 -46 41 -60 5 -13 9 -160 9 -326 0 -287 1 -304 21 -336 20 -33 34 -36 80
-17 13 6 19 -1 28 -26 7 -18 8 -34 3 -36 -5 -1 -51 -27 -102 -58 -51 -30 -103
-57 -116 -60 -31 -8 -80 22 -107 66 -21 33 -22 48 -27 341 -5 284 -6 309 -24
328 -26 29 -45 26 -89 -10 l-37 -30 0 -271 0 -271 31 -48 c16 -26 37 -53 45
-59 7 -7 14 -16 14 -21 0 -5 -92 -9 -205 -9 l-205 0 45 66 45 65 0 281 0 280
-34 34 c-19 19 -41 34 -50 34 -10 0 -16 8 -16 23 0 17 25 40 102 95 55 39 111
72 124 72 35 0 73 -40 92 -97 l17 -51 95 70 c52 38 104 73 115 77 29 12 70 -6
105 -46z m-1645 -988 c69 -18 105 -39 112 -65 4 -14 19 -19 69 -23 117 -9 139
-41 130 -191 -6 -111 -19 -141 -66 -151 -23 -5 -34 -16 -49 -49 -15 -35 -29
-48 -74 -70 -52 -26 -55 -29 -61 -73 -10 -77 -7 -143 7 -143 6 0 58 34 115 76
99 73 104 76 133 64 40 -17 105 -92 113 -131 9 -44 8 -94 -3 -121 -11 -30 -66
-84 -112 -110 l-37 -21 57 -56 c81 -78 92 -116 100 -345 8 -203 15 -227 92
-311 l39 -42 -91 -72 c-50 -39 -95 -71 -99 -71 -16 0 -99 104 -132 164 l-33
61 -5 190 c-6 214 -10 227 -82 289 -65 56 -68 53 -68 -79 0 -129 9 -163 65
-230 l34 -42 -141 -6 c-77 -3 -169 -3 -204 0 l-63 6 26 34 c14 18 24 35 22 38
-3 2 -49 -21 -102 -51 -90 -51 -100 -55 -127 -44 -33 14 -65 46 -77 77 -8 21
-11 20 -97 -33 -49 -30 -94 -54 -99 -54 -22 0 -169 85 -187 108 -19 23 -20 41
-20 352 l0 327 175 82 c96 44 184 81 195 81 11 0 52 -13 93 -29 40 -16 92 -34
115 -40 l42 -12 0 -324 0 -324 25 -28 24 -28 38 21 38 22 3 288 c2 159 0 321
-3 359 l-6 71 -34 -4 c-41 -5 -203 16 -225 28 -10 6 6 9 49 10 35 0 62 2 60 4
-6 6 -215 30 -251 29 -16 0 -25 4 -21 10 4 6 -2 8 -15 5 -12 -4 -22 -2 -22 4
0 6 -7 8 -15 4 -8 -3 -15 -1 -15 4 0 6 -7 10 -15 10 -8 0 -39 11 -69 24 -88
39 -99 94 -27 134 59 33 77 30 85 -17 4 -28 14 -45 34 -58 44 -30 131 -52 227
-57 90 -5 90 -5 22 4 -81 12 -185 52 -204 80 -8 11 -19 17 -25 14 -7 -4 -8 -2
-4 4 9 15 -4 63 -15 56 -5 -3 -7 1 -4 8 3 7 -2 31 -10 53 -8 23 -14 32 -15 20
0 -11 -3 -31 -6 -45 -4 -19 -3 -22 5 -10 13 18 23 9 11 -10 -6 -10 -13 -11
-19 -5 -15 15 -61 213 -61 263 0 37 4 45 32 62 73 44 208 60 463 55 137 -3
219 -10 260 -20z m-1413 -499 l3 -285 115 90 c63 49 124 89 136 89 27 0 81
-37 108 -73 21 -28 21 -40 24 -494 l3 -465 -78 -77 c-43 -42 -118 -110 -166
-150 l-88 -74 -23 22 -24 23 49 65 c27 36 61 87 74 114 l25 48 0 389 c0 379
-1 390 -21 416 -26 34 -41 33 -95 -6 l-44 -31 0 -260 c0 -287 -3 -272 73 -369
l29 -38 -212 0 -212 0 24 33 c13 17 34 49 46 70 22 38 22 42 22 524 0 479 0
486 -21 520 l-22 35 24 23 c22 22 223 142 241 144 4 1 9 -127 10 -283z m-760
207 c118 -99 305 -121 414 -47 30 21 39 23 53 12 9 -7 18 -13 20 -15 4 -2
-146 -187 -232 -286 -33 -37 -58 -69 -56 -71 2 -2 26 -10 53 -19 186 -63 267
-204 236 -416 -27 -189 -168 -347 -402 -448 -64 -28 -85 -33 -97 -24 -43 30
-154 81 -208 95 -34 9 -94 16 -134 16 -65 0 -79 -4 -118 -30 -53 -36 -65 -37
-79 -6 -10 22 -5 30 56 93 37 37 113 122 170 188 l102 120 -70 11 c-129 22
-197 72 -248 183 -33 72 -35 179 -4 263 56 156 224 330 382 395 79 32 110 30
162 -14z m1512 -124 c-8 -14 -21 -11 -21 5 0 8 6 12 14 9 7 -3 10 -9 7 -14z
m1668 -316 c91 -191 132 -283 127 -286 -2 -2 -91 -51 -196 -108 l-193 -104 0
-55 0 -55 64 -23 c36 -12 74 -22 86 -22 37 0 182 82 231 131 18 18 19 17 40
-13 l23 -31 -36 -31 c-20 -17 -71 -63 -114 -101 -86 -77 -162 -134 -209 -158
-30 -15 -34 -14 -164 47 -88 41 -138 69 -144 83 -6 13 -6 147 -1 349 l9 327
195 93 c107 51 200 93 206 93 6 1 40 -61 76 -136z m800 120 c23 -20 23 -32 -1
-57 -23 -25 -191 -265 -197 -281 -3 -7 24 -18 73 -28 43 -9 93 -26 111 -37
l32 -20 0 -208 0 -209 -170 -72 c-161 -69 -170 -72 -187 -56 -29 29 -79 45
-143 45 -76 0 -123 -19 -177 -72 -41 -40 -43 -41 -62 -24 -19 17 -18 20 53
114 102 135 209 292 203 298 -2 2 -43 12 -91 21 l-86 17 0 206 0 205 171 82
172 83 28 -24 c32 -27 116 -43 166 -32 17 4 40 20 52 36 25 35 28 36 53 13z"/>
<path d="M6820 4480 l0 -310 48 -24 c26 -13 64 -31 85 -39 l37 -16 0 283 0
282 -85 67 -85 67 0 -310z"/>
<path d="M4801 5052 c-96 -44 -110 -112 -111 -542 0 -157 -5 -305 -11 -329
-14 -64 -52 -134 -124 -236 -36 -49 -60 -91 -55 -93 30 -10 146 97 192 178 58
101 60 116 67 510 6 350 8 367 29 414 12 28 34 65 48 84 14 18 24 35 23 36 -2
2 -28 -8 -58 -22z"/>
<path d="M7550 4441 l0 -268 73 -33 c39 -18 78 -35 85 -37 10 -4 12 50 10 262
l-3 268 -82 38 -83 38 0 -268z"/>
<path d="M5369 4707 c-5 -19 -9 -367 -4 -436 l7 -93 73 -34 c41 -19 79 -34 85
-34 7 0 10 79 8 262 l-3 261 -82 38 c-46 21 -83 37 -84 36z"/>
<path d="M6478 3810 c-102 -8 -198 -27 -198 -39 0 -4 18 -13 40 -20 147 -44
617 -37 664 9 20 20 -68 41 -208 50 -154 10 -157 10 -298 0z"/>
<path d="M6225 3791 c-3 -5 -2 -12 3 -15 5 -3 9 1 9 9 0 17 -3 19 -12 6z"/>
<path d="M6246 3697 c3 -10 9 -15 12 -12 3 3 0 11 -7 18 -10 9 -11 8 -5 -6z"/>
<path d="M7057 3648 c-4 -18 -9 -61 -13 -95 -6 -61 -6 -63 20 -73 74 -28 116
8 116 99 0 77 -18 101 -74 101 -41 0 -44 -2 -49 -32z"/>
<path d="M6270 2770 l0 -260 55 -27 c53 -26 57 -27 83 -11 l27 17 3 234 2 234
-78 36 c-43 21 -81 37 -85 37 -4 0 -7 -117 -7 -260z"/>
<path d="M7033 3013 c-16 -6 -19 -213 -3 -213 11 0 119 85 138 108 35 44 -18
113 -86 111 -20 0 -43 -3 -49 -6z"/>
<path d="M4630 3445 c-15 -18 -25 -95 -16 -129 9 -36 53 -84 97 -107 21 -10
72 -24 114 -31 l75 -12 34 40 c20 21 35 42 36 47 0 4 -17 7 -38 7 -56 0 -152
28 -193 56 -39 26 -79 89 -79 123 0 25 -12 27 -30 6z"/>
<path d="M4430 3318 c-36 -65 -46 -122 -30 -187 26 -109 103 -179 228 -207
l73 -16 29 33 c32 39 28 43 -43 53 -182 23 -274 160 -223 329 19 62 4 59 -34
-5z"/>
<path d="M4828 2936 c-34 -42 -34 -46 -5 -46 42 0 123 -29 164 -59 83 -60 112
-198 64 -306 -25 -57 -9 -56 36 4 103 134 48 333 -112 407 -27 12 -66 25 -85
29 -31 5 -38 2 -62 -29z"/>
<path d="M4592 2636 l-71 -83 92 -5 c101 -6 172 -28 250 -78 33 -20 49 -26 51
-17 30 95 -3 176 -87 219 -39 20 -128 48 -153 48 -6 0 -43 -38 -82 -84z"/>
<path d="M7710 2886 l0 -178 68 37 c37 20 71 40 75 44 5 5 -20 59 -54 122 -96
177 -89 179 -89 -25z"/>
<path d="M8342 2922 l3 -117 28 -3 c37 -4 51 8 109 98 53 80 52 87 -12 89 -14
1 -49 12 -78 26 l-53 24 3 -117z"/>
<path d="M8443 2698 c-20 -24 -113 -164 -113 -172 0 -2 26 -5 58 -5 56 0 111
-15 170 -45 39 -20 40 -16 34 108 l-4 98 -42 19 c-54 25 -78 24 -103 -3z"/>
</g>
</svg>
